<mxfile host="app.diagrams.net" modified="2024-04-24T13:07:30.207Z" agent="Mozilla/5.0 (X11; Linux x86_64) AppleWebKit/537.36 (KHTML, like Gecko) Chrome/122.0.0.0 Safari/537.36" etag="DfKMQVOWY-W3cDZkKwSQ" version="24.2.5" type="device">
  <diagram name="Pagina-1" id="w_eEv3NtSXeDfTLCQEwR">
    <mxGraphModel dx="1135" dy="639" grid="1" gridSize="10" guides="1" tooltips="1" connect="1" arrows="1" fold="1" page="1" pageScale="1" pageWidth="827" pageHeight="1169" math="0" shadow="0">
      <root>
        <mxCell id="0" />
        <mxCell id="1" parent="0" />
        <mxCell id="MbKlLmu9MP12zDya-M-E-1" value="&lt;span style=&quot;font-family: Söhne, ui-sans-serif, system-ui, -apple-system, &amp;quot;Segoe UI&amp;quot;, Roboto, Ubuntu, Cantarell, &amp;quot;Noto Sans&amp;quot;, sans-serif, &amp;quot;Helvetica Neue&amp;quot;, Arial, &amp;quot;Apple Color Emoji&amp;quot;, &amp;quot;Segoe UI Emoji&amp;quot;, &amp;quot;Segoe UI Symbol&amp;quot;, &amp;quot;Noto Color Emoji&amp;quot;; font-size: 16px; text-align: start; white-space-collapse: preserve;&quot;&gt;α&lt;sub&gt;1&lt;/sub&gt;&lt;/span&gt;&lt;span style=&quot;font-family: Söhne, ui-sans-serif, system-ui, -apple-system, &amp;quot;Segoe UI&amp;quot;, Roboto, Ubuntu, Cantarell, &amp;quot;Noto Sans&amp;quot;, sans-serif, &amp;quot;Helvetica Neue&amp;quot;, Arial, &amp;quot;Apple Color Emoji&amp;quot;, &amp;quot;Segoe UI Emoji&amp;quot;, &amp;quot;Segoe UI Symbol&amp;quot;, &amp;quot;Noto Color Emoji&amp;quot;; font-size: 16px; text-align: start; white-space-collapse: preserve;&quot;&gt;&lt;font color=&quot;#ffffff&quot;&gt; &lt;/font&gt;&lt;/span&gt;" style="ellipse;whiteSpace=wrap;html=1;aspect=fixed;" parent="1" vertex="1">
          <mxGeometry x="420" y="383" width="50" height="50" as="geometry" />
        </mxCell>
        <mxCell id="MbKlLmu9MP12zDya-M-E-10" value="&lt;font style=&quot;font-size: 16px;&quot;&gt;Deel van bottom-up compilatie&lt;/font&gt;" style="rounded=0;whiteSpace=wrap;html=1;" parent="1" vertex="1">
          <mxGeometry x="407.5" y="474" width="249" height="60" as="geometry" />
        </mxCell>
        <mxCell id="MbKlLmu9MP12zDya-M-E-11" value="&lt;font style=&quot;font-size: 16px;&quot;&gt;Deel van logisch circuit&lt;/font&gt;" style="rounded=0;whiteSpace=wrap;html=1;" parent="1" vertex="1">
          <mxGeometry x="110" y="474" width="280" height="60" as="geometry" />
        </mxCell>
        <mxCell id="MbKlLmu9MP12zDya-M-E-12" value="&lt;font style=&quot;font-size: 16px;&quot;&gt;f&lt;/font&gt;" style="ellipse;whiteSpace=wrap;html=1;aspect=fixed;" parent="1" vertex="1">
          <mxGeometry x="223" y="190" width="50" height="50" as="geometry" />
        </mxCell>
        <mxCell id="MbKlLmu9MP12zDya-M-E-13" value="&lt;font style=&quot;font-size: 16px;&quot;&gt;f&lt;sub&gt;2&lt;/sub&gt;&lt;/font&gt;" style="ellipse;whiteSpace=wrap;html=1;aspect=fixed;" parent="1" vertex="1">
          <mxGeometry x="192" y="320" width="50" height="50" as="geometry" />
        </mxCell>
        <mxCell id="MbKlLmu9MP12zDya-M-E-14" value="&lt;font style=&quot;font-size: 16px;&quot;&gt;f&lt;sub&gt;3&lt;/sub&gt;&lt;/font&gt;" style="ellipse;whiteSpace=wrap;html=1;aspect=fixed;" parent="1" vertex="1">
          <mxGeometry x="252" y="320" width="50" height="50" as="geometry" />
        </mxCell>
        <mxCell id="MbKlLmu9MP12zDya-M-E-18" value="&lt;font style=&quot;&quot;&gt;&lt;span style=&quot;font-size: 16px;&quot;&gt;f&lt;sub&gt;1&lt;/sub&gt;&lt;/span&gt;&lt;/font&gt;" style="ellipse;whiteSpace=wrap;html=1;aspect=fixed;" parent="1" vertex="1">
          <mxGeometry x="132" y="320" width="50" height="50" as="geometry" />
        </mxCell>
        <mxCell id="MbKlLmu9MP12zDya-M-E-19" value="&lt;font style=&quot;font-size: 16px;&quot;&gt;f&lt;sub&gt;4&lt;/sub&gt;&lt;/font&gt;" style="ellipse;whiteSpace=wrap;html=1;aspect=fixed;" parent="1" vertex="1">
          <mxGeometry x="312" y="320" width="50" height="50" as="geometry" />
        </mxCell>
        <mxCell id="MbKlLmu9MP12zDya-M-E-21" value="&lt;span style=&quot;font-family: Söhne, ui-sans-serif, system-ui, -apple-system, &amp;quot;Segoe UI&amp;quot;, Roboto, Ubuntu, Cantarell, &amp;quot;Noto Sans&amp;quot;, sans-serif, &amp;quot;Helvetica Neue&amp;quot;, Arial, &amp;quot;Apple Color Emoji&amp;quot;, &amp;quot;Segoe UI Emoji&amp;quot;, &amp;quot;Segoe UI Symbol&amp;quot;, &amp;quot;Noto Color Emoji&amp;quot;; font-size: 16px; text-align: start; white-space-collapse: preserve;&quot;&gt;α&lt;sub&gt;2&lt;/sub&gt;&lt;/span&gt;" style="ellipse;whiteSpace=wrap;html=1;aspect=fixed;" parent="1" vertex="1">
          <mxGeometry x="480" y="383" width="50" height="50" as="geometry" />
        </mxCell>
        <mxCell id="MbKlLmu9MP12zDya-M-E-22" value="&lt;span style=&quot;font-family: Söhne, ui-sans-serif, system-ui, -apple-system, &amp;quot;Segoe UI&amp;quot;, Roboto, Ubuntu, Cantarell, &amp;quot;Noto Sans&amp;quot;, sans-serif, &amp;quot;Helvetica Neue&amp;quot;, Arial, &amp;quot;Apple Color Emoji&amp;quot;, &amp;quot;Segoe UI Emoji&amp;quot;, &amp;quot;Segoe UI Symbol&amp;quot;, &amp;quot;Noto Color Emoji&amp;quot;; font-size: 16px; text-align: start; white-space-collapse: preserve;&quot;&gt;α&lt;sub&gt;3&lt;/sub&gt;&lt;/span&gt;" style="ellipse;whiteSpace=wrap;html=1;aspect=fixed;" parent="1" vertex="1">
          <mxGeometry x="540" y="383" width="50" height="50" as="geometry" />
        </mxCell>
        <mxCell id="MbKlLmu9MP12zDya-M-E-23" value="&lt;span style=&quot;font-family: Söhne, ui-sans-serif, system-ui, -apple-system, &amp;quot;Segoe UI&amp;quot;, Roboto, Ubuntu, Cantarell, &amp;quot;Noto Sans&amp;quot;, sans-serif, &amp;quot;Helvetica Neue&amp;quot;, Arial, &amp;quot;Apple Color Emoji&amp;quot;, &amp;quot;Segoe UI Emoji&amp;quot;, &amp;quot;Segoe UI Symbol&amp;quot;, &amp;quot;Noto Color Emoji&amp;quot;; font-size: 16px; text-align: start; white-space-collapse: preserve;&quot;&gt;α&lt;sub&gt;4&lt;/sub&gt;&lt;/span&gt;" style="ellipse;whiteSpace=wrap;html=1;aspect=fixed;" parent="1" vertex="1">
          <mxGeometry x="600" y="383" width="50" height="50" as="geometry" />
        </mxCell>
        <mxCell id="6IysS8TOpE49SOD870QL-13" style="rounded=0;orthogonalLoop=1;jettySize=auto;html=1;endArrow=none;endFill=0;startArrow=classic;startFill=1;exitX=0.66;exitY=0.98;exitDx=0;exitDy=0;exitPerimeter=0;" edge="1" parent="1" source="MbKlLmu9MP12zDya-M-E-27" target="6IysS8TOpE49SOD870QL-9">
          <mxGeometry relative="1" as="geometry">
            <mxPoint x="510" y="210" as="sourcePoint" />
          </mxGeometry>
        </mxCell>
        <mxCell id="MbKlLmu9MP12zDya-M-E-27" value="&lt;span style=&quot;font-family: Söhne, ui-sans-serif, system-ui, -apple-system, &amp;quot;Segoe UI&amp;quot;, Roboto, Ubuntu, Cantarell, &amp;quot;Noto Sans&amp;quot;, sans-serif, &amp;quot;Helvetica Neue&amp;quot;, Arial, &amp;quot;Apple Color Emoji&amp;quot;, &amp;quot;Segoe UI Emoji&amp;quot;, &amp;quot;Segoe UI Symbol&amp;quot;, &amp;quot;Noto Color Emoji&amp;quot;; text-align: start; white-space-collapse: preserve; font-size: 16px;&quot;&gt;γ&lt;/span&gt;&lt;span style=&quot;font-family: Söhne, ui-sans-serif, system-ui, -apple-system, &amp;quot;Segoe UI&amp;quot;, Roboto, Ubuntu, Cantarell, &amp;quot;Noto Sans&amp;quot;, sans-serif, &amp;quot;Helvetica Neue&amp;quot;, Arial, &amp;quot;Apple Color Emoji&amp;quot;, &amp;quot;Segoe UI Emoji&amp;quot;, &amp;quot;Segoe UI Symbol&amp;quot;, &amp;quot;Noto Color Emoji&amp;quot;; font-size: 16px; text-align: start; white-space-collapse: preserve;&quot;&gt;&lt;sub&gt;8&lt;/sub&gt;&lt;/span&gt;" style="ellipse;whiteSpace=wrap;html=1;aspect=fixed;" parent="1" vertex="1">
          <mxGeometry x="480" y="154" width="50" height="50" as="geometry" />
        </mxCell>
        <mxCell id="MbKlLmu9MP12zDya-M-E-30" value="" style="endArrow=none;html=1;rounded=0;exitX=0.5;exitY=0;exitDx=0;exitDy=0;entryX=0.5;entryY=1;entryDx=0;entryDy=0;" parent="1" source="MbKlLmu9MP12zDya-M-E-18" target="MbKlLmu9MP12zDya-M-E-12" edge="1">
          <mxGeometry width="50" height="50" relative="1" as="geometry">
            <mxPoint x="222" y="290" as="sourcePoint" />
            <mxPoint x="272" y="240" as="targetPoint" />
          </mxGeometry>
        </mxCell>
        <mxCell id="MbKlLmu9MP12zDya-M-E-31" value="" style="endArrow=none;html=1;rounded=0;exitX=0.5;exitY=0;exitDx=0;exitDy=0;entryX=0.5;entryY=1;entryDx=0;entryDy=0;" parent="1" source="MbKlLmu9MP12zDya-M-E-13" target="MbKlLmu9MP12zDya-M-E-12" edge="1">
          <mxGeometry width="50" height="50" relative="1" as="geometry">
            <mxPoint x="167" y="330" as="sourcePoint" />
            <mxPoint x="287" y="250" as="targetPoint" />
          </mxGeometry>
        </mxCell>
        <mxCell id="MbKlLmu9MP12zDya-M-E-32" value="" style="endArrow=none;html=1;rounded=0;exitX=0.5;exitY=0;exitDx=0;exitDy=0;entryX=0.5;entryY=1;entryDx=0;entryDy=0;" parent="1" source="MbKlLmu9MP12zDya-M-E-14" target="MbKlLmu9MP12zDya-M-E-12" edge="1">
          <mxGeometry width="50" height="50" relative="1" as="geometry">
            <mxPoint x="177" y="340" as="sourcePoint" />
            <mxPoint x="297" y="260" as="targetPoint" />
          </mxGeometry>
        </mxCell>
        <mxCell id="MbKlLmu9MP12zDya-M-E-33" value="" style="endArrow=none;html=1;rounded=0;exitX=0.5;exitY=0;exitDx=0;exitDy=0;entryX=0.5;entryY=1;entryDx=0;entryDy=0;" parent="1" source="MbKlLmu9MP12zDya-M-E-19" target="MbKlLmu9MP12zDya-M-E-12" edge="1">
          <mxGeometry width="50" height="50" relative="1" as="geometry">
            <mxPoint x="187" y="350" as="sourcePoint" />
            <mxPoint x="307" y="270" as="targetPoint" />
          </mxGeometry>
        </mxCell>
        <mxCell id="MbKlLmu9MP12zDya-M-E-35" value="" style="endArrow=classic;html=1;rounded=0;exitX=0.5;exitY=0;exitDx=0;exitDy=0;entryX=0.158;entryY=1.011;entryDx=0;entryDy=0;entryPerimeter=0;endFill=1;" parent="1" source="MbKlLmu9MP12zDya-M-E-1" target="6IysS8TOpE49SOD870QL-5" edge="1">
          <mxGeometry width="50" height="50" relative="1" as="geometry">
            <mxPoint x="105" y="373" as="sourcePoint" />
            <mxPoint x="165" y="293" as="targetPoint" />
          </mxGeometry>
        </mxCell>
        <mxCell id="MbKlLmu9MP12zDya-M-E-36" value="" style="endArrow=classic;html=1;rounded=0;exitX=0.5;exitY=0;exitDx=0;exitDy=0;entryX=0.376;entryY=0.978;entryDx=0;entryDy=0;entryPerimeter=0;endFill=1;" parent="1" source="MbKlLmu9MP12zDya-M-E-21" edge="1" target="6IysS8TOpE49SOD870QL-5">
          <mxGeometry width="50" height="50" relative="1" as="geometry">
            <mxPoint x="455" y="393" as="sourcePoint" />
            <mxPoint x="470" y="363" as="targetPoint" />
          </mxGeometry>
        </mxCell>
        <mxCell id="MbKlLmu9MP12zDya-M-E-37" value="" style="endArrow=classic;html=1;rounded=0;exitX=0.5;exitY=0;exitDx=0;exitDy=0;entryX=0.838;entryY=1;entryDx=0;entryDy=0;entryPerimeter=0;endFill=1;" parent="1" source="MbKlLmu9MP12zDya-M-E-23" target="6IysS8TOpE49SOD870QL-5" edge="1">
          <mxGeometry width="50" height="50" relative="1" as="geometry">
            <mxPoint x="465" y="403" as="sourcePoint" />
            <mxPoint x="495" y="383" as="targetPoint" />
          </mxGeometry>
        </mxCell>
        <mxCell id="MbKlLmu9MP12zDya-M-E-39" value="" style="endArrow=classic;html=1;rounded=0;exitX=0.5;exitY=0;exitDx=0;exitDy=0;entryX=0.638;entryY=1;entryDx=0;entryDy=0;entryPerimeter=0;endFill=1;" parent="1" source="MbKlLmu9MP12zDya-M-E-22" target="6IysS8TOpE49SOD870QL-5" edge="1">
          <mxGeometry width="50" height="50" relative="1" as="geometry">
            <mxPoint x="645" y="403" as="sourcePoint" />
            <mxPoint x="675" y="383" as="targetPoint" />
          </mxGeometry>
        </mxCell>
        <mxCell id="MbKlLmu9MP12zDya-M-E-40" value="" style="endArrow=classic;html=1;rounded=0;exitX=0.5;exitY=0;exitDx=0;exitDy=0;entryX=0.19;entryY=1.007;entryDx=0;entryDy=0;entryPerimeter=0;endFill=1;" parent="1" source="MbKlLmu9MP12zDya-M-E-25" target="6IysS8TOpE49SOD870QL-9" edge="1">
          <mxGeometry width="50" height="50" relative="1" as="geometry">
            <mxPoint x="655" y="413" as="sourcePoint" />
            <mxPoint x="685" y="393" as="targetPoint" />
          </mxGeometry>
        </mxCell>
        <mxCell id="MbKlLmu9MP12zDya-M-E-43" value="" style="endArrow=none;dashed=1;html=1;dashPattern=1 3;strokeWidth=2;rounded=0;exitX=0.5;exitY=0;exitDx=0;exitDy=0;" parent="1" source="MbKlLmu9MP12zDya-M-E-12" edge="1">
          <mxGeometry width="50" height="50" relative="1" as="geometry">
            <mxPoint x="262" y="140" as="sourcePoint" />
            <mxPoint x="250" y="150" as="targetPoint" />
          </mxGeometry>
        </mxCell>
        <mxCell id="MbKlLmu9MP12zDya-M-E-44" value="" style="endArrow=none;dashed=1;html=1;dashPattern=1 3;strokeWidth=2;rounded=0;entryX=0.5;entryY=1;entryDx=0;entryDy=0;" parent="1" target="MbKlLmu9MP12zDya-M-E-18" edge="1">
          <mxGeometry width="50" height="50" relative="1" as="geometry">
            <mxPoint x="157" y="400" as="sourcePoint" />
            <mxPoint x="156.5" y="370" as="targetPoint" />
          </mxGeometry>
        </mxCell>
        <mxCell id="MbKlLmu9MP12zDya-M-E-45" value="" style="endArrow=none;dashed=1;html=1;dashPattern=1 3;strokeWidth=2;rounded=0;entryX=0.5;entryY=1;entryDx=0;entryDy=0;" parent="1" target="MbKlLmu9MP12zDya-M-E-13" edge="1">
          <mxGeometry width="50" height="50" relative="1" as="geometry">
            <mxPoint x="217" y="400" as="sourcePoint" />
            <mxPoint x="167" y="380" as="targetPoint" />
          </mxGeometry>
        </mxCell>
        <mxCell id="MbKlLmu9MP12zDya-M-E-46" value="" style="endArrow=none;dashed=1;html=1;dashPattern=1 3;strokeWidth=2;rounded=0;entryX=0.5;entryY=1;entryDx=0;entryDy=0;" parent="1" target="MbKlLmu9MP12zDya-M-E-14" edge="1">
          <mxGeometry width="50" height="50" relative="1" as="geometry">
            <mxPoint x="277" y="400" as="sourcePoint" />
            <mxPoint x="227" y="380" as="targetPoint" />
          </mxGeometry>
        </mxCell>
        <mxCell id="MbKlLmu9MP12zDya-M-E-47" value="" style="endArrow=none;dashed=1;html=1;dashPattern=1 3;strokeWidth=2;rounded=0;entryX=0.5;entryY=1;entryDx=0;entryDy=0;" parent="1" target="MbKlLmu9MP12zDya-M-E-19" edge="1">
          <mxGeometry width="50" height="50" relative="1" as="geometry">
            <mxPoint x="337" y="400" as="sourcePoint" />
            <mxPoint x="287" y="380" as="targetPoint" />
          </mxGeometry>
        </mxCell>
        <mxCell id="MbKlLmu9MP12zDya-M-E-50" value="" style="endArrow=none;dashed=1;html=1;dashPattern=1 3;strokeWidth=2;rounded=0;entryX=0.5;entryY=1;entryDx=0;entryDy=0;" parent="1" target="MbKlLmu9MP12zDya-M-E-18" edge="1">
          <mxGeometry width="50" height="50" relative="1" as="geometry">
            <mxPoint x="172" y="400" as="sourcePoint" />
            <mxPoint x="167" y="380" as="targetPoint" />
          </mxGeometry>
        </mxCell>
        <mxCell id="MbKlLmu9MP12zDya-M-E-51" value="" style="endArrow=none;dashed=1;html=1;dashPattern=1 3;strokeWidth=2;rounded=0;entryX=0.5;entryY=1;entryDx=0;entryDy=0;" parent="1" target="MbKlLmu9MP12zDya-M-E-18" edge="1">
          <mxGeometry width="50" height="50" relative="1" as="geometry">
            <mxPoint x="142" y="400" as="sourcePoint" />
            <mxPoint x="177" y="390" as="targetPoint" />
          </mxGeometry>
        </mxCell>
        <mxCell id="MbKlLmu9MP12zDya-M-E-55" value="" style="endArrow=none;dashed=1;html=1;dashPattern=1 3;strokeWidth=2;rounded=0;entryX=0.5;entryY=1;entryDx=0;entryDy=0;" parent="1" target="MbKlLmu9MP12zDya-M-E-13" edge="1">
          <mxGeometry width="50" height="50" relative="1" as="geometry">
            <mxPoint x="232" y="400" as="sourcePoint" />
            <mxPoint x="167" y="380" as="targetPoint" />
          </mxGeometry>
        </mxCell>
        <mxCell id="MbKlLmu9MP12zDya-M-E-56" value="" style="endArrow=none;dashed=1;html=1;dashPattern=1 3;strokeWidth=2;rounded=0;entryX=0.5;entryY=1;entryDx=0;entryDy=0;" parent="1" target="MbKlLmu9MP12zDya-M-E-14" edge="1">
          <mxGeometry width="50" height="50" relative="1" as="geometry">
            <mxPoint x="292" y="400" as="sourcePoint" />
            <mxPoint x="227" y="380" as="targetPoint" />
          </mxGeometry>
        </mxCell>
        <mxCell id="MbKlLmu9MP12zDya-M-E-57" value="" style="endArrow=none;dashed=1;html=1;dashPattern=1 3;strokeWidth=2;rounded=0;entryX=0.5;entryY=1;entryDx=0;entryDy=0;" parent="1" target="MbKlLmu9MP12zDya-M-E-19" edge="1">
          <mxGeometry width="50" height="50" relative="1" as="geometry">
            <mxPoint x="352" y="400" as="sourcePoint" />
            <mxPoint x="287" y="380" as="targetPoint" />
          </mxGeometry>
        </mxCell>
        <mxCell id="MbKlLmu9MP12zDya-M-E-60" value="" style="endArrow=none;dashed=1;html=1;dashPattern=1 3;strokeWidth=2;rounded=0;entryX=0.5;entryY=1;entryDx=0;entryDy=0;" parent="1" target="MbKlLmu9MP12zDya-M-E-19" edge="1">
          <mxGeometry width="50" height="50" relative="1" as="geometry">
            <mxPoint x="322" y="400" as="sourcePoint" />
            <mxPoint x="332" y="370" as="targetPoint" />
          </mxGeometry>
        </mxCell>
        <mxCell id="MbKlLmu9MP12zDya-M-E-61" value="" style="endArrow=none;dashed=1;html=1;dashPattern=1 3;strokeWidth=2;rounded=0;entryX=0.5;entryY=1;entryDx=0;entryDy=0;" parent="1" target="MbKlLmu9MP12zDya-M-E-14" edge="1">
          <mxGeometry width="50" height="50" relative="1" as="geometry">
            <mxPoint x="262" y="400" as="sourcePoint" />
            <mxPoint x="347" y="380" as="targetPoint" />
          </mxGeometry>
        </mxCell>
        <mxCell id="MbKlLmu9MP12zDya-M-E-62" value="" style="endArrow=none;dashed=1;html=1;dashPattern=1 3;strokeWidth=2;rounded=0;entryX=0.5;entryY=1;entryDx=0;entryDy=0;" parent="1" target="MbKlLmu9MP12zDya-M-E-13" edge="1">
          <mxGeometry width="50" height="50" relative="1" as="geometry">
            <mxPoint x="202" y="400" as="sourcePoint" />
            <mxPoint x="287" y="380" as="targetPoint" />
          </mxGeometry>
        </mxCell>
        <mxCell id="MbKlLmu9MP12zDya-M-E-64" value="" style="endArrow=none;dashed=1;html=1;dashPattern=1 3;strokeWidth=2;rounded=0;entryX=0.5;entryY=1;entryDx=0;entryDy=0;" parent="1" edge="1">
          <mxGeometry width="50" height="50" relative="1" as="geometry">
            <mxPoint x="460" y="464" as="sourcePoint" />
            <mxPoint x="445" y="434" as="targetPoint" />
          </mxGeometry>
        </mxCell>
        <mxCell id="MbKlLmu9MP12zDya-M-E-65" value="" style="endArrow=none;dashed=1;html=1;dashPattern=1 3;strokeWidth=2;rounded=0;entryX=0.5;entryY=1;entryDx=0;entryDy=0;" parent="1" edge="1">
          <mxGeometry width="50" height="50" relative="1" as="geometry">
            <mxPoint x="430" y="464" as="sourcePoint" />
            <mxPoint x="445" y="434" as="targetPoint" />
          </mxGeometry>
        </mxCell>
        <mxCell id="MbKlLmu9MP12zDya-M-E-66" value="" style="endArrow=none;dashed=1;html=1;dashPattern=1 3;strokeWidth=2;rounded=0;entryX=0.5;entryY=1;entryDx=0;entryDy=0;" parent="1" edge="1">
          <mxGeometry width="50" height="50" relative="1" as="geometry">
            <mxPoint x="521" y="465" as="sourcePoint" />
            <mxPoint x="506" y="435" as="targetPoint" />
          </mxGeometry>
        </mxCell>
        <mxCell id="MbKlLmu9MP12zDya-M-E-67" value="" style="endArrow=none;dashed=1;html=1;dashPattern=1 3;strokeWidth=2;rounded=0;entryX=0.5;entryY=1;entryDx=0;entryDy=0;" parent="1" edge="1">
          <mxGeometry width="50" height="50" relative="1" as="geometry">
            <mxPoint x="491" y="465" as="sourcePoint" />
            <mxPoint x="506" y="435" as="targetPoint" />
          </mxGeometry>
        </mxCell>
        <mxCell id="MbKlLmu9MP12zDya-M-E-68" value="" style="endArrow=none;dashed=1;html=1;dashPattern=1 3;strokeWidth=2;rounded=0;entryX=0.5;entryY=1;entryDx=0;entryDy=0;" parent="1" edge="1">
          <mxGeometry width="50" height="50" relative="1" as="geometry">
            <mxPoint x="580" y="464" as="sourcePoint" />
            <mxPoint x="565" y="434" as="targetPoint" />
          </mxGeometry>
        </mxCell>
        <mxCell id="MbKlLmu9MP12zDya-M-E-69" value="" style="endArrow=none;dashed=1;html=1;dashPattern=1 3;strokeWidth=2;rounded=0;entryX=0.5;entryY=1;entryDx=0;entryDy=0;" parent="1" edge="1">
          <mxGeometry width="50" height="50" relative="1" as="geometry">
            <mxPoint x="550" y="464" as="sourcePoint" />
            <mxPoint x="565" y="434" as="targetPoint" />
          </mxGeometry>
        </mxCell>
        <mxCell id="MbKlLmu9MP12zDya-M-E-70" value="" style="endArrow=none;dashed=1;html=1;dashPattern=1 3;strokeWidth=2;rounded=0;entryX=0.5;entryY=1;entryDx=0;entryDy=0;" parent="1" edge="1">
          <mxGeometry width="50" height="50" relative="1" as="geometry">
            <mxPoint x="641" y="465" as="sourcePoint" />
            <mxPoint x="626" y="435" as="targetPoint" />
          </mxGeometry>
        </mxCell>
        <mxCell id="MbKlLmu9MP12zDya-M-E-71" value="" style="endArrow=none;dashed=1;html=1;dashPattern=1 3;strokeWidth=2;rounded=0;entryX=0.5;entryY=1;entryDx=0;entryDy=0;" parent="1" edge="1">
          <mxGeometry width="50" height="50" relative="1" as="geometry">
            <mxPoint x="611" y="465" as="sourcePoint" />
            <mxPoint x="626" y="435" as="targetPoint" />
          </mxGeometry>
        </mxCell>
        <mxCell id="MbKlLmu9MP12zDya-M-E-77" value="" style="endArrow=block;html=1;rounded=0;exitX=1;exitY=0;exitDx=0;exitDy=0;entryX=0;entryY=0.5;entryDx=0;entryDy=0;curved=1;strokeColor=#FF6666;startArrow=none;startFill=0;endFill=1;dashed=1;" parent="1" source="MbKlLmu9MP12zDya-M-E-12" target="6IysS8TOpE49SOD870QL-19" edge="1">
          <mxGeometry width="50" height="50" relative="1" as="geometry">
            <mxPoint x="310" y="220" as="sourcePoint" />
            <mxPoint x="450" y="65" as="targetPoint" />
            <Array as="points">
              <mxPoint x="370" y="80" />
            </Array>
          </mxGeometry>
        </mxCell>
        <mxCell id="6IysS8TOpE49SOD870QL-10" style="rounded=0;orthogonalLoop=1;jettySize=auto;html=1;endArrow=classic;endFill=1;entryX=0.445;entryY=0.967;entryDx=0;entryDy=0;entryPerimeter=0;exitX=0.5;exitY=0;exitDx=0;exitDy=0;" edge="1" parent="1">
          <mxGeometry relative="1" as="geometry">
            <mxPoint x="546.25" y="334" as="sourcePoint" />
            <mxPoint x="540" y="253.01" as="targetPoint" />
          </mxGeometry>
        </mxCell>
        <mxCell id="6IysS8TOpE49SOD870QL-7" style="rounded=0;orthogonalLoop=1;jettySize=auto;html=1;entryX=0.25;entryY=0;entryDx=0;entryDy=0;endArrow=none;endFill=0;startArrow=classic;startFill=1;exitX=0.284;exitY=0.964;exitDx=0;exitDy=0;exitPerimeter=0;" edge="1" parent="1" source="MbKlLmu9MP12zDya-M-E-25" target="6IysS8TOpE49SOD870QL-5">
          <mxGeometry relative="1" as="geometry">
            <mxPoint x="485" y="320" as="sourcePoint" />
          </mxGeometry>
        </mxCell>
        <mxCell id="6IysS8TOpE49SOD870QL-8" style="rounded=0;orthogonalLoop=1;jettySize=auto;html=1;exitX=0.5;exitY=1;exitDx=0;exitDy=0;endArrow=none;endFill=0;startArrow=classic;startFill=1;entryX=0.363;entryY=0.02;entryDx=0;entryDy=0;entryPerimeter=0;" edge="1" parent="1" source="MbKlLmu9MP12zDya-M-E-25" target="6IysS8TOpE49SOD870QL-5">
          <mxGeometry relative="1" as="geometry">
            <mxPoint x="500" y="330" as="targetPoint" />
          </mxGeometry>
        </mxCell>
        <mxCell id="6IysS8TOpE49SOD870QL-11" style="rounded=0;orthogonalLoop=1;jettySize=auto;html=1;exitX=0.75;exitY=0;exitDx=0;exitDy=0;entryX=0.83;entryY=0.98;entryDx=0;entryDy=0;entryPerimeter=0;endArrow=classic;endFill=1;startArrow=none;startFill=0;" edge="1" parent="1" source="6IysS8TOpE49SOD870QL-5" target="6IysS8TOpE49SOD870QL-9">
          <mxGeometry relative="1" as="geometry">
            <Array as="points" />
          </mxGeometry>
        </mxCell>
        <mxCell id="6IysS8TOpE49SOD870QL-15" style="rounded=0;orthogonalLoop=1;jettySize=auto;html=1;exitX=0.5;exitY=0;exitDx=0;exitDy=0;entryX=0.282;entryY=1.02;entryDx=0;entryDy=0;entryPerimeter=0;endArrow=classic;endFill=1;" edge="1" parent="1" source="MbKlLmu9MP12zDya-M-E-27" target="6IysS8TOpE49SOD870QL-14">
          <mxGeometry relative="1" as="geometry" />
        </mxCell>
        <mxCell id="6IysS8TOpE49SOD870QL-16" style="rounded=0;orthogonalLoop=1;jettySize=auto;html=1;entryX=0.606;entryY=1.012;entryDx=0;entryDy=0;entryPerimeter=0;endArrow=classic;endFill=1;exitX=0.75;exitY=0;exitDx=0;exitDy=0;" edge="1" parent="1" source="6IysS8TOpE49SOD870QL-9" target="6IysS8TOpE49SOD870QL-14">
          <mxGeometry relative="1" as="geometry">
            <mxPoint x="580" y="220" as="sourcePoint" />
          </mxGeometry>
        </mxCell>
        <mxCell id="6IysS8TOpE49SOD870QL-19" value="&lt;div style=&quot;text-align: start;&quot;&gt;&lt;span style=&quot;font-family: Söhne, ui-sans-serif, system-ui, -apple-system, &amp;quot;Segoe UI&amp;quot;, Roboto, Ubuntu, Cantarell, &amp;quot;Noto Sans&amp;quot;, sans-serif, &amp;quot;Helvetica Neue&amp;quot;, Arial, &amp;quot;Apple Color Emoji&amp;quot;, &amp;quot;Segoe UI Emoji&amp;quot;, &amp;quot;Segoe UI Symbol&amp;quot;, &amp;quot;Noto Color Emoji&amp;quot;; font-size: 16px; white-space-collapse: preserve;&quot;&gt;α&lt;/span&gt;&lt;br&gt;&lt;/div&gt;" style="ellipse;whiteSpace=wrap;html=1;aspect=fixed;" vertex="1" parent="1">
          <mxGeometry x="507" y="40" width="50" height="50" as="geometry" />
        </mxCell>
        <mxCell id="6IysS8TOpE49SOD870QL-20" style="rounded=0;orthogonalLoop=1;jettySize=auto;html=1;exitX=0.5;exitY=1;exitDx=0;exitDy=0;entryX=0.419;entryY=0.033;entryDx=0;entryDy=0;entryPerimeter=0;endArrow=none;endFill=0;startArrow=classic;startFill=1;" edge="1" parent="1" source="6IysS8TOpE49SOD870QL-19" target="6IysS8TOpE49SOD870QL-14">
          <mxGeometry relative="1" as="geometry" />
        </mxCell>
        <mxCell id="6IysS8TOpE49SOD870QL-21" style="rounded=0;orthogonalLoop=1;jettySize=auto;html=1;exitX=0.5;exitY=1;exitDx=0;exitDy=0;entryX=0.597;entryY=-0.033;entryDx=0;entryDy=0;entryPerimeter=0;endArrow=none;endFill=0;startArrow=classic;startFill=1;" edge="1" parent="1" source="6IysS8TOpE49SOD870QL-19" target="6IysS8TOpE49SOD870QL-14">
          <mxGeometry relative="1" as="geometry" />
        </mxCell>
        <mxCell id="6IysS8TOpE49SOD870QL-22" style="rounded=0;orthogonalLoop=1;jettySize=auto;html=1;exitX=0.5;exitY=1;exitDx=0;exitDy=0;entryX=0.138;entryY=0.007;entryDx=0;entryDy=0;entryPerimeter=0;startArrow=classic;startFill=1;endArrow=none;endFill=0;" edge="1" parent="1" source="MbKlLmu9MP12zDya-M-E-27" target="6IysS8TOpE49SOD870QL-9">
          <mxGeometry relative="1" as="geometry" />
        </mxCell>
        <mxCell id="6IysS8TOpE49SOD870QL-25" value="" style="endArrow=none;dashed=1;html=1;dashPattern=1 3;strokeWidth=2;rounded=0;entryX=0.5;entryY=0;entryDx=0;entryDy=0;" edge="1" parent="1" target="6IysS8TOpE49SOD870QL-19">
          <mxGeometry width="50" height="50" relative="1" as="geometry">
            <mxPoint x="532" y="10" as="sourcePoint" />
            <mxPoint x="560" y="40" as="targetPoint" />
          </mxGeometry>
        </mxCell>
        <mxCell id="6IysS8TOpE49SOD870QL-5" value="&lt;font style=&quot;font-size: 16px;&quot;&gt;Heuristiek&lt;/font&gt;" style="rounded=0;whiteSpace=wrap;html=1;" vertex="1" parent="1">
          <mxGeometry x="415.5" y="334" width="234.5" height="30" as="geometry" />
        </mxCell>
        <mxCell id="MbKlLmu9MP12zDya-M-E-25" value="&lt;span style=&quot;font-family: Söhne, ui-sans-serif, system-ui, -apple-system, &amp;quot;Segoe UI&amp;quot;, Roboto, Ubuntu, Cantarell, &amp;quot;Noto Sans&amp;quot;, sans-serif, &amp;quot;Helvetica Neue&amp;quot;, Arial, &amp;quot;Apple Color Emoji&amp;quot;, &amp;quot;Segoe UI Emoji&amp;quot;, &amp;quot;Segoe UI Symbol&amp;quot;, &amp;quot;Noto Color Emoji&amp;quot;; text-align: start; white-space-collapse: preserve; font-size: 16px;&quot;&gt;γ&lt;/span&gt;&lt;span style=&quot;font-family: Söhne, ui-sans-serif, system-ui, -apple-system, &amp;quot;Segoe UI&amp;quot;, Roboto, Ubuntu, Cantarell, &amp;quot;Noto Sans&amp;quot;, sans-serif, &amp;quot;Helvetica Neue&amp;quot;, Arial, &amp;quot;Apple Color Emoji&amp;quot;, &amp;quot;Segoe UI Emoji&amp;quot;, &amp;quot;Segoe UI Symbol&amp;quot;, &amp;quot;Noto Color Emoji&amp;quot;; font-size: 16px; text-align: start; white-space-collapse: preserve;&quot;&gt;&lt;sub&gt;6&lt;/sub&gt;&lt;/span&gt;" style="ellipse;whiteSpace=wrap;html=1;aspect=fixed;" parent="1" vertex="1">
          <mxGeometry x="470" y="270" width="50" height="50" as="geometry" />
        </mxCell>
        <mxCell id="6IysS8TOpE49SOD870QL-9" value="&lt;font style=&quot;font-size: 16px;&quot;&gt;Heuristiek&lt;/font&gt;" style="rounded=0;whiteSpace=wrap;html=1;" vertex="1" parent="1">
          <mxGeometry x="482" y="224" width="100" height="30" as="geometry" />
        </mxCell>
        <mxCell id="6IysS8TOpE49SOD870QL-14" value="&lt;font style=&quot;font-size: 16px;&quot;&gt;Heuristiek&lt;/font&gt;" style="rounded=0;whiteSpace=wrap;html=1;" vertex="1" parent="1">
          <mxGeometry x="482" y="110" width="100" height="30" as="geometry" />
        </mxCell>
      </root>
    </mxGraphModel>
  </diagram>
</mxfile>
